<svg viewBox="0 0 512 512" xmlns="http://www.w3.org/2000/svg"><circle cx="256" cy="256" fill="#7cc8fb" r="256"/><path d="m402.67 49.55v400.12a8.36 8.36 0 0 1 -8.33 8.33h-276.68a8.33 8.33 0 0 1 -8.33-8.33v-337.18l71.27-71.27h213.74a8.33 8.33 0 0 1 8.33 8.33z" fill="#fff"/><g fill="#3e436d"><path d="m355.12 183.64h-205.4a5.85 5.85 0 0 1 0-11.7h205.4a5.85 5.85 0 1 1 0 11.7z"/><path d="m256.36 218.56h-106.64a5.85 5.85 0 0 1 0-11.7h106.64a5.85 5.85 0 0 1 0 11.7z"/><path d="m355.12 218.56h-80.21a5.85 5.85 0 0 1 0-11.7h80.21a5.85 5.85 0 1 1 0 11.7z"/><path d="m305.74 127.1h-106.64a5.85 5.85 0 0 1 0-11.7h106.64a5.85 5.85 0 0 1 0 11.7z"/><path d="m355.12 257.2h-205.4a5.85 5.85 0 0 1 0-11.7h205.4a5.85 5.85 0 1 1 0 11.7z"/></g><path d="m180.6 41.22v38.65a32.61 32.61 0 0 1 -32.6 32.62h-38.67z" fill="#e2e2e2"/><path d="m285.25 339.92v81.28a6.64 6.64 0 0 1 -9.71 5.9l-17.06-8.84a6.7 6.7 0 0 0 -6.13 0l-17.06 8.84a6.64 6.64 0 0 1 -9.71-5.9v-81.28z" fill="#db1b1b"/><path d="m206 327.86c0 7.36-7.82 16.22-5.16 22.61 2.75 6.63 14.64 7.34 19.63 12.34s5.71 16.89 12.34 19.64c6.4 2.65 15.26-5.16 22.62-5.16s16.21 7.81 22.61 5.16c6.63-2.75 7.34-14.64 12.34-19.64s16.88-5.71 19.63-12.34c2.66-6.39-5.16-15.25-5.16-22.61s7.82-16.22 5.16-22.61c-2.75-6.63-14.64-7.34-19.63-12.34s-5.72-16.91-12.38-19.64c-6.4-2.65-15.26 5.16-22.61 5.16s-16.22-7.81-22.62-5.16c-6.63 2.75-7.34 14.64-12.34 19.64s-16.88 5.71-19.63 12.34c-2.63 6.39 5.2 15.25 5.2 22.61z" fill="#db1b1b"/><path d="m285.25 372.38v12.06c-1.76 4.34-3.61 8.56-7.23 10.06-6.39 2.66-15.25-5.16-22.6-5.16s-16.23 7.82-22.62 5.16c-3.62-1.49-5.47-5.71-7.22-10v-12c1.75 4.32 3.6 8.54 7.22 10 6.39 2.65 15.25-5.16 22.62-5.16s16.21 7.81 22.6 5.16c3.62-1.56 5.47-5.78 7.23-10.12z" fill="#bc1b1b"/><path d="m254.21 369.44a80.41 80.41 0 0 0 3.56 8.08 12.72 12.72 0 0 0 -2.35-.23c-7.36 0-16.22 7.81-22.62 5.16-6.63-2.75-7.34-14.64-12.33-19.64s-16.89-5.7-19.64-12.33c-2.65-6.41 5.16-15.27 5.16-22.62s-7.81-16.22-5.16-22.62c2.75-6.63 14.63-7.34 19.64-12.33s5.7-16.89 12.33-19.64c6.4-2.65 15.26 5.16 22.62 5.16a12.72 12.72 0 0 0 2.35-.23 79.42 79.42 0 0 0 -3.56 8.08 20.63 20.63 0 0 1 -3.91 6.63c-5 5-16.89 5.7-19.63 12.33-2.66 6.4 5.15 15.27 5.15 22.62s-7.81 16.21-5.15 22.62c2.74 6.63 14.63 7.34 19.63 12.33a20.63 20.63 0 0 1 3.91 6.63z" fill="#bc1b1b"/><circle cx="255.42" cy="327.86" fill="#f6c752" r="41.59"/><path d="m250.3 362.81a20.63 20.63 0 0 1 3.91 6.63 41.6 41.6 0 0 1 0-83.16 20.63 20.63 0 0 1 -3.91 6.63c-5 5-16.89 5.7-19.63 12.33-2.66 6.4 5.15 15.27 5.15 22.62s-7.81 16.21-5.15 22.62c2.74 6.63 14.63 7.34 19.63 12.33z" fill="#f7bb38"/></svg>