<svg xmlns="http://www.w3.org/2000/svg" version="1.1" xmlns:xlink="http://www.w3.org/1999/xlink" xmlns:svgjs="http://svgjs.dev/svgjs" width="100%" height="560" preserveAspectRatio="none" viewBox="0 0 1440 250">
    <g mask="url(&quot;#SvgjsMask1076&quot;)" fill="none">
        <rect width="1440" height="250" x="0" y="0" fill="url(&quot;#SvgjsLinearGradient1077&quot;)"></rect>
        <path d="M499.6796082816927 39.786751871029246L452.18889171624426 27.945986356174423 440.34812620138945 75.43670292162287 487.8388427668379 87.2774684364777z" fill="rgba(28, 83, 142, 0.4)" class="triangle-float1"></path>
        <path d="M487.99740037300495 106.25054287717612L525.6192596890963 104.27886477792076 503.8508128821676 48.83191485341142z" fill="rgba(28, 83, 142, 0.4)" class="triangle-float3"></path>
        <path d="M1421.7606071310784 131.99505138362565L1393.7833292890548 176.768055142791 1438.5563330482203 204.74533298481458 1466.5336108902438 159.9723292256492z" fill="rgba(28, 83, 142, 0.4)" class="triangle-float1"></path>
        <path d="M427.94008144659915 228.23681044696127L377.52017236732297 201.4280692459959 401.1313402456338 278.65671952623745z" fill="rgba(28, 83, 142, 0.4)" class="triangle-float1"></path>
        <path d="M1010.305,306.229C1029.939,306.457,1048.568,295.241,1057.231,277.62C1065.101,261.612,1057.92,243.626,1048.541,228.452C1039.775,214.27,1026.967,202.285,1010.305,201.699C992.681,201.079,976.208,210.483,967.111,225.59C957.712,241.198,956.627,260.491,965.23,276.552C974.334,293.548,991.025,306.005,1010.305,306.229" fill="rgba(28, 83, 142, 0.4)" class="triangle-float3"></path>
        <path d="M138.487,129.109C158.19,129.256,178.16,122.78,188.594,106.065C199.607,88.421,199.98,65.644,189.208,47.852C178.782,30.63,158.604,22.522,138.487,23.3C119.718,24.026,103.74,35.388,94.133,51.528C84.268,68.1,80.09,88.583,89.662,105.326C99.292,122.17,119.085,128.964,138.487,129.109" fill="rgba(28, 83, 142, 0.4)" class="triangle-float2"></path>
        <path d="M261.29212612041226 199.79546743002416L224.82724993307917 215.27388904774838 240.3056715508034 251.73876523508144 276.7705477381365 236.26034361735725z" fill="rgba(28, 83, 142, 0.4)" class="triangle-float3"></path>
        <path d="M876.201,212.814C895.748,212.594,917.823,211.097,927.655,194.202C937.523,177.244,929.108,156.582,918.547,140.047C908.95,125.022,894.029,113.712,876.201,113.646C858.266,113.58,843.131,124.726,833.309,139.732C822.224,156.668,812.455,177.927,822.7,195.384C832.875,212.722,856.099,213.04,876.201,212.814" fill="rgba(28, 83, 142, 0.4)" class="triangle-float3"></path>
        <path d="M197.177,58.154C214.029,58.378,230.316,49.913,238.324,35.084C245.994,20.88,242.263,3.934,233.917,-9.884C225.895,-23.166,212.687,-32.625,197.177,-33.044C180.921,-33.483,165.055,-25.994,156.833,-11.964C148.525,2.213,149.683,19.774,157.878,34.017C166.095,48.299,180.701,57.935,197.177,58.154" fill="rgba(28, 83, 142, 0.4)" class="triangle-float1"></path>
        <path d="M1245.3556291494197 150.34688010953911L1276.7424453129304 144.81253758137564 1252.7475234389299 100.49948460019132z" fill="rgba(28, 83, 142, 0.4)" class="triangle-float2"></path>
        <path d="M698.208,212.234C718.519,211.241,731.005,192.837,741.747,175.571C753.45,156.761,767.636,135.841,758.214,115.791C747.818,93.669,722.565,80.877,698.208,82.921C676.435,84.749,663.672,105.281,653.436,124.585C644.054,142.278,637.504,162.389,646.614,180.223C656.482,199.542,676.541,213.293,698.208,212.234" fill="rgba(28, 83, 142, 0.4)" class="triangle-float1"></path>
        <path d="M823.104,30.418C830.577,30.511,838.79,29.269,842.604,22.841C846.472,16.321,844.121,8.196,840.101,1.769C836.355,-4.221,830.165,-8.095,823.104,-8.338C815.567,-8.598,807.867,-5.92,803.948,0.523C799.892,7.191,800.219,15.792,804.43,22.364C808.35,28.482,815.839,30.327,823.104,30.418" fill="rgba(28, 83, 142, 0.4)" class="triangle-float2"></path>
        <path d="M154.3941252179073 97.96082190041581L172.21538758639718 131.47774168271542 205.7323073686968 113.65647931422552 187.9110450002069 80.1395595319259z" fill="rgba(28, 83, 142, 0.4)" class="triangle-float2"></path>
        <path d="M16.668,290.609C31.124,290.817,44.936,284.058,52.451,271.707C60.271,258.856,61.141,242.739,53.777,229.622C46.263,216.237,32.008,208.525,16.668,207.967C0.211,207.369,-17.576,212.268,-25.43,226.742C-33.045,240.776,-26.16,257.369,-17.373,270.7C-9.619,282.463,2.58,290.406,16.668,290.609" fill="rgba(28, 83, 142, 0.4)" class="triangle-float1"></path>
        <path d="M298.551,273.563C322.864,273.143,349.159,271.526,362.938,251.49C378.376,229.042,380.41,198.502,366.128,175.301C352.399,152.999,324.733,146.288,298.551,146.896C273.613,147.475,249.64,157.304,236.201,178.319C221.63,201.103,215.384,231.153,230.197,253.781C244.121,275.052,273.132,274.002,298.551,273.563" fill="rgba(28, 83, 142, 0.4)" class="triangle-float3"></path>
        <path d="M415.3777750617953-7.129932010635642L362.9159391663417-38.6521832021002 331.39368797487714 13.809652693353428 383.8555238703308 45.33190388481798z" fill="rgba(28, 83, 142, 0.4)" class="triangle-float2"></path>
        <path d="M1407.0266506740145 63.882794834650795L1345.4979096855934 15.71677210662745 1334.812489907377 83.18185741627994z" fill="rgba(28, 83, 142, 0.4)" class="triangle-float1"></path>
        <path d="M73.087,176.491C90.752,177.114,109.157,171.721,118.419,156.666C128.065,140.986,126.72,120.773,116.968,105.159C107.755,90.409,90.468,83.503,73.087,84.085C56.742,84.632,42.187,93.769,34.018,107.937C25.857,122.09,24.885,139.459,32.974,153.653C41.139,167.981,56.606,175.91,73.087,176.491" fill="rgba(28, 83, 142, 0.4)" class="triangle-float1"></path>
        <path d="M916.2626350503286 171.54025428907363L935.3382074767803 130.63255720786657 875.3549379691216 152.4646818626219z" fill="rgba(28, 83, 142, 0.4)" class="triangle-float2"></path>
        <path d="M244.30895147182304 166.8747080863742L189.29469549990102 132.49798561142546 209.9322289968743 221.8889640582962z" fill="rgba(28, 83, 142, 0.4)" class="triangle-float3"></path>
    </g>
    <defs>
        <mask id="SvgjsMask1076">
            <rect width="1440" height="250" fill="#ffffff"></rect>
        </mask>
        <linearGradient x1="0%" y1="50%" x2="100%" y2="50%" gradientUnits="userSpaceOnUse" id="SvgjsLinearGradient1077">
            <stop stop-color="rgba(22, 36, 71, 1)" offset="0.08"></stop>
            <stop stop-color="rgba(7, 16, 31, 1)" offset="1"></stop>
        </linearGradient>
        <style>
            @keyframes float1 {
                    0%{transform: translate(0, 0)}
                    50%{transform: translate(-10px, 0)}
                    100%{transform: translate(0, 0)}
                }

                .triangle-float1 {
                    animation: float1 5s infinite;
                }

                @keyframes float2 {
                    0%{transform: translate(0, 0)}
                    50%{transform: translate(-5px, -5px)}
                    100%{transform: translate(0, 0)}
                }

                .triangle-float2 {
                    animation: float2 4s infinite;
                }

                @keyframes float3 {
                    0%{transform: translate(0, 0)}
                    50%{transform: translate(0, -10px)}
                    100%{transform: translate(0, 0)}
                }

                .triangle-float3 {
                    animation: float3 6s infinite;
                }
        </style>
    </defs>
</svg>