<svg xmlns="http://www.w3.org/2000/svg" version="1.1" xmlns:xlink="http://www.w3.org/1999/xlink" xmlns:svgjs="http://svgjs.dev/svgjs" width="1440" height="330" preserveAspectRatio="none" viewBox="0 0 1440 250">
    <g mask="url(&quot;#SvgjsMask1012&quot;)" fill="none">
        <rect width="1440" height="250" x="0" y="0" fill="rgba(14, 42, 71, 0.52)"></rect>
        <path d="M31 250L281 0L620 0L370 250z" fill="url(&quot;#SvgjsLinearGradient1013&quot;)"></path>
        <path d="M244.60000000000002 250L494.6 0L760.1 0L510.1 250z" fill="url(&quot;#SvgjsLinearGradient1013&quot;)"></path>
        <path d="M496.20000000000005 250L746.2 0L1001.2 0L751.2 250z" fill="url(&quot;#SvgjsLinearGradient1013&quot;)"></path>
        <path d="M734.8000000000001 250L984.8000000000001 0L1161.8000000000002 0L911.8000000000001 250z" fill="url(&quot;#SvgjsLinearGradient1013&quot;)"></path>
        <path d="M1420 250L1170 0L843 0L1093 250z" fill="url(&quot;#SvgjsLinearGradient1014&quot;)"></path>
        <path d="M1165.4 250L915.4000000000001 0L696.4000000000001 0L946.4000000000001 250z" fill="url(&quot;#SvgjsLinearGradient1014&quot;)"></path>
        <path d="M917.8 250L667.8 0L438.29999999999995 0L688.3 250z" fill="url(&quot;#SvgjsLinearGradient1014&quot;)"></path>
        <path d="M710.1999999999999 250L460.19999999999993 0L238.19999999999993 0L488.19999999999993 250z" fill="url(&quot;#SvgjsLinearGradient1014&quot;)"></path>
        <path d="M1217.291321912036 250L1440 27.29132191203587L1440 250z" fill="url(&quot;#SvgjsLinearGradient1013&quot;)"></path>
        <path d="M0 250L222.70867808796413 250L 0 27.29132191203587z" fill="url(&quot;#SvgjsLinearGradient1014&quot;)"></path>
    </g>
    <defs>
        <mask id="SvgjsMask1012">
            <rect width="1440" height="250" fill="#ffffff"></rect>
        </mask>
        <linearGradient x1="0%" y1="100%" x2="100%" y2="0%" id="SvgjsLinearGradient1013">
            <stop stop-color="rgba(15, 70, 185, 0.2)" offset="0"></stop>
            <stop stop-opacity="0" stop-color="rgba(15, 70, 185, 0.2)" offset="0.66"></stop>
        </linearGradient>
        <linearGradient x1="100%" y1="100%" x2="0%" y2="0%" id="SvgjsLinearGradient1014">
            <stop stop-color="rgba(15, 70, 185, 0.2)" offset="0"></stop>
            <stop stop-opacity="0" stop-color="rgba(15, 70, 185, 0.2)" offset="0.66"></stop>
        </linearGradient>
    </defs>
</svg>