<svg xmlns="http://www.w3.org/2000/svg" version="1.1" xmlns:xlink="http://www.w3.org/1999/xlink" xmlns:svgjs="http://svgjs.dev/svgjs" width="1440" height="330" preserveAspectRatio="none" viewBox="0 0 1440 560">
    <g mask="url(&quot;#SvgjsMask1005&quot;)" fill="none">
        <rect width="1440" height="560" x="0" y="0" fill="#0e2a47"></rect>
        <path d="M109.12 0C131.01 6.08 121.51 22.49 140 38.89C200.44 92.49 204.45 88.42 266.98 140C274.45 146.16 270.91 151.59 280 154.36C347.42 174.92 355.85 191.56 420 186.67C449.95 184.38 468.2 161.05 468.2 140C468.2 121.91 441.78 127.13 420 108.39C360.41 57.13 305.45 31.39 305.45 0C305.45 -22.8 362.73 0 420 0C482.22 0 488.06 -10.35 544.44 0C558.06 2.5 548.24 16.64 560 25.71C626.02 76.64 630.59 72.05 700 120C713.31 129.2 710.29 135.21 725.45 140C780.29 157.33 786.38 164.23 840 164.23C855.54 164.23 863.77 155.49 863.77 140C863.77 90.87 858.28 84.42 840 35C832.39 14.42 812 10.77 812 0C812 -6.73 826 0 840 0C910 0 910 0 980 0C1050 0 1050 0 1120 0C1183.34 0 1190.15 -10.94 1246.67 0C1260.15 2.61 1252.55 27.1 1260 27.1C1267.96 27.1 1262.91 2.82 1277.5 0C1332.91 -10.73 1338.75 0 1400 0C1460 0 1468.36 -13.9 1520 0C1538.36 4.94 1537.06 17.09 1540 37.69C1547.06 87.09 1540 88.84 1540 140C1540 210 1540 210 1540 280C1540 350 1540 350 1540 420C1540 490 1575 525 1540 560C1505 595 1470 560 1400 560C1330 560 1330 560 1260 560C1193.89 560 1191.48 564.78 1127.78 560C1121.48 559.53 1126.16 551.3 1120 549.5C1052.27 529.76 1045.12 513.32 980 516.92C950.05 518.57 959.52 550.87 929.85 560C889.52 572.41 884.92 560 840 560C770 560 770 560 700 560C654.93 560 609.86 584.3 609.86 560C609.86 515.76 654.61 491.2 700 422.92C701.14 421.2 702.92 421.65 702.92 420C702.92 417.69 702.74 415.83 700 415C631.28 394.08 625.7 374.8 560 376.49C528.41 377.3 511.63 389.62 505.42 420C492.87 481.38 547.21 519.46 522.47 560C504.5 589.46 471.24 560 420 560C364.15 560 336.86 590.93 308.31 560C272.24 520.93 303.53 488.08 290.77 420C289.37 412.55 286.05 413.73 280 408.95C210.67 354.23 213.26 308.41 140 301C73.26 294.25 43.08 387.09 0 380.63C-26.92 376.59 0 330.32 0 280C0 210 0 210 0 140C0 70 -30.66 39.34 0 0C23.9 -30.66 61.01 -13.36 109.12 0" stroke="rgba(51, 126, 194, 0.58)" stroke-width="2"></path>
        <path d="M1400 99.66C1370.95 99.66 1343.33 114.85 1343.33 140C1343.33 176.06 1370.15 222.07 1400 222.07C1431.54 222.07 1466.11 175.28 1466.11 140C1466.11 114.07 1432.34 99.66 1400 99.66" stroke="rgba(51, 126, 194, 0.58)" stroke-width="2"></path>
        <path d="M1120 266.67C1114.05 266.67 1106.34 273.29 1106.34 280C1106.34 286.79 1114.07 293.66 1120 293.66C1124.84 293.66 1127.89 286.81 1127.89 280C1127.89 273.31 1124.83 266.67 1120 266.67" stroke="rgba(51, 126, 194, 0.58)" stroke-width="2"></path>
        <path d="M0 451.11C39.37 420.66 80.85 425.64 140 451.73C204.27 480.08 246.84 528.2 246.84 560C246.84 582.34 193.42 560 140 560C70 560 39.37 590.63 0 560C-30.63 536.18 -30.63 474.79 0 451.11" stroke="rgba(51, 126, 194, 0.58)" stroke-width="2"></path>
        <path d="M57.65 0C106.42 36.12 95.58 55.09 140 103.7C159.55 125.09 185.58 119.55 185.58 140C185.58 164.92 162.79 167.22 140 194.44C104.18 237.22 108.64 242.17 68.37 280C38.64 307.92 21.95 325.94 0 325.94C-12.24 325.94 0 302.97 0 280C0 210 0 210 0 140C0 70 -20.42 49.58 0 0C8.41 -20.42 36.42 -15.73 57.65 0" stroke="rgba(51, 126, 194, 0.58)" stroke-width="2"></path>
        <path d="M420 70.75C381.89 70.75 345.23 20.49 345.23 0C345.23 -14.88 382.62 0 420 0C460.62 0 501.23 -15.21 501.23 0C501.23 20.17 459.89 70.75 420 70.75" stroke="rgba(51, 126, 194, 0.58)" stroke-width="2"></path>
        <path d="M525.57 140C544.63 120.25 540.26 97.14 560 97.14C585.11 97.14 593.42 113.22 615.26 140C663.42 199.05 642.07 245.2 700 268.8C754.44 290.97 779.05 265.7 840 231.54C893.95 201.3 887.12 187.7 929.81 140C957.12 109.49 955.06 107.68 980 75.12C1008.68 37.68 999.8 19.98 1037.04 0C1069.8 -17.58 1078.52 0 1120 0C1155.55 0 1169.2 -21.91 1191.11 0C1239.2 48.09 1225.55 70 1260 140C1260 140 1260 140 1260 140C1313.45 210 1336.27 202 1366.91 280C1391.27 342 1374.51 350.39 1370 420C1365.44 490.39 1382.58 516.98 1348.78 560C1327.58 586.98 1304.39 560 1260 560C1226.3 560 1217.51 577.44 1192.59 560C1147.51 528.44 1169.42 482.44 1120 462C1063.12 438.47 1041.78 447.07 980 472.05C920.59 496.07 932.36 525.61 877.61 560C862.36 569.58 858.81 560 840 560C770 560 770 560 700 560C678.9 560 657.81 571.38 657.81 560C657.81 539.29 675.38 525.04 700 495.83C734.39 455.04 775.83 462.82 775.83 420C775.83 359.91 754.89 313.1 700 290C646.98 267.69 623.41 296.72 560 329.19C496.46 361.72 464.5 362.3 446.1 420C427.7 477.7 495.35 511.91 486.39 560C482.3 581.91 453.19 560 420 560C383.82 560 354.25 583.43 347.64 560C334.5 513.43 397.41 480.74 380.51 420C363.59 359.16 331.63 366.94 280 316.84C259.5 296.94 236.25 298.28 236.25 280C236.25 261.91 253.55 249.54 280 244.1C345.43 230.65 360.09 267.62 420 242.22C482.88 215.57 474.63 192.79 525.57 140" stroke="rgba(51, 126, 194, 0.58)" stroke-width="2"></path>
        <path d="M1400 40.34C1375.31 40.34 1350.42 11.36 1350.42 0C1350.42 -8.81 1375.21 0 1400 0C1424.28 0 1448.57 -8.77 1448.57 0C1448.57 11.4 1424.39 40.34 1400 40.34" stroke="rgba(51, 126, 194, 0.58)" stroke-width="2"></path>
        <path d="M1120 183.33C1076.89 183.33 1020.98 231.37 1020.98 280C1020.98 329.21 1077.01 379.02 1120 379.02C1155.11 379.02 1177.18 329.36 1177.18 280C1177.18 231.52 1154.99 183.33 1120 183.33" stroke="rgba(51, 126, 194, 0.58)" stroke-width="2"></path>
        <path d="M1430.55 420C1430.55 362.84 1508.67 297.14 1540 297.14C1563.39 297.14 1540 358.57 1540 420C1540 464.92 1561.24 509.85 1540 509.85C1506.52 509.85 1430.55 469.19 1430.55 420" stroke="rgba(51, 126, 194, 0.58)" stroke-width="2"></path>
        <path d="M0 494.32C47.65 473.35 77.95 478.1 140 498.4C178.34 510.94 200.79 541.91 200.79 560C200.79 572.71 170.39 560 140 560C70 560 47.65 582.35 0 560C-22.35 549.51 -22.35 504.15 0 494.32" stroke="rgba(51, 126, 194, 0.58)" stroke-width="2"></path>
        <path d="M6.18 0C41.3 67.32 74.73 72.86 73.04 140C71.64 195.36 20.06 245 0 245C-16.46 245 0 192.5 0 140C0 70 -2.96 67.04 0 0C0.13 -2.96 4.78 -2.68 6.18 0" stroke="rgba(51, 126, 194, 0.58)" stroke-width="2"></path>
        <path d="M420 33.12C402.16 33.12 385 9.59 385 0C385 -6.97 402.5 0 420 0C439.01 0 458.02 -7.12 458.02 0C458.02 9.44 438.67 33.12 420 33.12" stroke="rgba(51, 126, 194, 0.58)" stroke-width="2"></path>
        <path d="M1120 51.58C1111.51 51.58 1101.85 19.36 1101.85 0C1101.85 -6.43 1110.93 0 1120 0C1127.78 0 1135.56 -5.78 1135.56 0C1135.56 20.01 1128.37 51.58 1120 51.58" stroke="rgba(51, 126, 194, 0.58)" stroke-width="2"></path>
        <path d="M544.44 280C544.44 275.89 553.7 267.27 560 267.27C564.39 267.27 565.83 274.92 565.83 280C565.83 282.23 563.01 281.89 560 281.89C552.31 281.89 544.44 283.2 544.44 280" stroke="rgba(51, 126, 194, 0.58)" stroke-width="2"></path>
        <path d="M1226.48 280C1239.24 249.8 1241.57 223.33 1260 223.33C1279.96 223.33 1295.26 246.83 1303.27 280C1319.01 345.16 1317.23 351.64 1307.5 420C1297.3 491.64 1286.62 491.59 1263.41 560C1262.87 561.59 1261.7 560 1260 560C1258.7 560 1258.07 561.1 1257.41 560C1216.51 491.1 1184.94 492.93 1176.88 420C1169.47 352.93 1197.68 348.13 1226.48 280" stroke="rgba(51, 126, 194, 0.58)" stroke-width="2"></path>
        <path d="M900 420C900 409.6 943.29 387.06 980 387.06C999.76 387.06 1012.94 408.36 1012.94 420C1012.94 428.42 996.69 427.18 980 427.18C940.22 427.18 900 429.66 900 420" stroke="rgba(51, 126, 194, 0.58)" stroke-width="2"></path>
        <path d="M1494.18 420C1494.18 396.07 1526.88 368.57 1540 368.57C1549.79 368.57 1540 394.28 1540 420C1540 438.81 1548.89 457.61 1540 457.61C1525.98 457.61 1494.18 440.59 1494.18 420" stroke="rgba(51, 126, 194, 0.58)" stroke-width="2"></path>
        <path d="M0 537.53C60.33 531.1 72.7 535.3 140 545.07C150.07 546.53 154.74 555.62 154.74 560C154.74 563.08 147.37 560 140 560C70 560 60.32 569.68 0 560C-9.68 558.45 -9.67 538.56 0 537.53" stroke="rgba(51, 126, 194, 0.58)" stroke-width="2"></path>
        <path d="M386.97 560C386.97 529.25 404.08 476 420 476C435.75 476 450.31 528.64 450.31 560C450.31 570.64 435.15 560 420 560C403.49 560 386.97 571.25 386.97 560" stroke="rgba(51, 126, 194, 0.58)" stroke-width="2"></path>
    </g>
    <defs>
        <mask id="SvgjsMask1005">
            <rect width="1440" height="560" fill="#ffffff"></rect>
        </mask>
    </defs>
</svg>