<svg enable-background="new 0 0 512 512" height="512" viewBox="0 0 512 512" width="512" xmlns="http://www.w3.org/2000/svg"><path d="m248.014 365.018-91.983-55.993v24.001l21.697 68.169 70.278-28.179 70.283 28.179 21.697-68.169v-24.001z" fill="#e6e9ed"/><path d="m491.93 444.246v63.983h-201.119l57.158-55.985-7.998-23.993 39.988-55.985-17.158-17.151c18.072 7.919 69.465 28.828 81.141 33.147 31.992 11.918 47.988 23.993 47.988 55.984z" fill="#656d78"/><path d="m290.811 508.229h-11.989l39.717-108.612 21.432-67.341 39.988 39.99-39.988 55.985 7.998 23.993z" fill="#656d78"/><path d="m290.811 508.229h-11.989l39.717-108.612 21.432-67.341 39.988 39.99-39.988 55.985 7.998 23.993z" fill="#fff" opacity=".2"/><path d="m4.064 444.246v63.983h201.118l-57.157-55.985 7.998-23.993-39.989-55.985 17.16-17.151c-18.073 7.919-69.466 28.828-81.142 33.147-31.992 11.918-47.988 23.993-47.988 55.984z" fill="#656d78"/><path d="m177.455 399.617-21.432-67.341-39.989 39.99 39.989 55.985-7.998 23.993 57.157 55.985h11.989z" fill="#656d78"/><path d="m205.182 508.229h11.989l-39.716-108.612-21.432-67.341-39.989 39.99 39.989 55.985-7.998 23.993z" fill="#fff" opacity=".2"/><path d="m116.034 371.977 17.16-16.862c-22.775 9.544-71.754 29.679-81.142 33.147-31.992 11.918-47.988 23.993-47.988 55.984v63.983h15.996c0-16.824 0-27.626 0-47.987 0-31.991 15.996-44.066 47.987-55.985 7.092-2.624 35.081-14.066 55.114-22.298z" fill="#fff" opacity=".2"/><path d="m379.959 372.266-17.158-17.151c22.773 9.544 71.754 29.679 81.141 33.147 31.992 11.918 47.988 23.993 47.988 55.984v63.983h-15.996c0-16.824 0-27.626 0-47.987 0-31.991-15.996-44.066-47.986-55.985-7.092-2.624-35.023-13.848-55.057-22.088z" opacity=".15"/><path d="m247.999 372.266 70.29 28.14-39.467 107.823h-61.651l-39.451-107.784z" fill="#ccd1d9"/><path d="m267.99 412.255h-39.986l-13.075-26.759 33.07-13.23 33.073 13.23z" fill="#ed5565"/><path d="m218.506 392.807 9.498 19.448h7.997l-10.793-22.096z" fill="#fff" opacity=".3"/><path d="m277.486 392.807-9.496 19.448h-7.994l10.789-22.096z" opacity=".3"/><path d="m275.986 506.979h-55.98v-54.735l15.995-39.989h23.995l15.99 39.989z" fill="#ed5565"/><path d="m244 412.255h-7.999l-15.995 39.989v54.735h7.998v-54.735z" fill="#fff" opacity=".3"/><path d="m251.998 412.255h7.998l15.99 39.989v54.735h-4.763-3.233v-54.735z" opacity=".3"/><path d="m247.272 372.562-69.552 27.883 2.601 8.178 67.685-27.609 67.861 27.007 2.422-7.615-69.54-27.836-.735.446z" opacity=".3"/><path d="m320.92 65.098s85.898-11.911 66.139 114.93l-35.107-57.422s-55.664 22.954-105.972 22.954c-50.385 0-105.409-22.954-105.409-22.954l-33.432 57.422c-19.918-212.341 228.097-173.789 236.814-172.352-37.592 15.433-23.033 57.422-23.033 57.422z" fill="#965353"/><path d="m320.92 65.098s59.555-10.474 52.65 92.866l13.488 22.064c19.76-126.84-66.138-114.93-66.138-114.93z" opacity=".3"/><path d="m301.363 4.169c-72.262-1.671-209.225 15.926-194.225 175.859l15.039-25.829c1.425-125.849 109.123-148.624 179.186-150.03z" fill="#fff" opacity=".3"/><path d="m387.059 180.028v15.996c0 91.577-86.695 167.955-139.958 167.955-53.267 0-139.962-76.378-139.962-167.955v-15.996l33.432-57.422s55.024 22.954 105.409 22.954c50.308 0 105.972-22.954 105.972-22.954z" fill="#eac6bb"/><path d="m123.133 196.024v-15.996l30.574-52.51c-8.182-2.858-13.137-4.912-13.137-4.912l-33.432 57.422v15.996c0 91.577 86.695 167.955 139.962 167.955 2.585 0 5.269-.234 7.998-.586-53.501-6.913-131.965-80.237-131.965-167.369z" fill="#fff" opacity=".5"/><path d="m371.062 196.024v-15.996l-30.568-52.51c8.176-2.858 13.137-4.912 13.137-4.912l33.428 57.422v15.996c0 91.577-86.695 167.955-139.958 167.955-2.585 0-5.268-.234-7.998-.586 53.497-6.913 131.959-80.237 131.959-167.369z" opacity=".2"/><path d="m419.957 355.98c4.396 0 7.998 3.602 7.998 7.998 0 4.397-3.602 7.998-7.998 7.998-4.398 0-7.998-3.601-7.998-7.998 0-4.396 3.6-7.998 7.998-7.998z" fill="#ffce54"/><path d="m459.945 443.957h47.988c0 13.278-10.717 23.994-23.994 23.994s-23.994-10.716-23.994-23.994z" fill="#ffce54"/><path d="m467.943 499.942v7.998h-95.975v-7.998c0-4.397 3.602-7.998 7.998-7.998h39.99 39.988c4.4 0 7.999 3.601 7.999 7.998z" fill="#ffce54"/><path d="m387.965 491.944h-7.998c-4.396 0-7.998 3.601-7.998 7.998v7.998h7.998v-7.998c0-4.397 3.601-7.998 7.998-7.998z" fill="#fff" opacity=".5"/><path d="m451.947 491.944h7.998c4.398 0 7.998 3.601 7.998 7.998v7.998h-7.998v-7.998c0-4.397-3.599-7.998-7.998-7.998z" opacity=".2"/><path d="m331.98 443.957h47.986c0 13.278-10.715 23.994-23.994 23.994-13.277 0-23.992-10.716-23.992-23.994z" fill="#ffce54"/><path d="m339.979 443.957h-7.998c0 13.278 10.715 23.994 23.992 23.994 1.367 0 2.688-.18 4-.398-11.358-1.907-19.994-11.685-19.994-23.596z" fill="#fff" opacity=".5"/><path d="m371.969 443.957h7.998c0 13.278-10.715 23.994-23.994 23.994-1.373 0-2.693-.18-3.998-.398 11.355-1.907 19.994-11.685 19.994-23.596z" opacity=".2"/><path d="m467.943 443.957h-7.998c0 13.278 10.717 23.994 23.994 23.994 1.367 0 2.686-.18 3.998-.398-11.355-1.907-19.994-11.685-19.994-23.596z" fill="#fff" opacity=".5"/><path d="m499.936 443.957h7.998c0 13.278-10.717 23.994-23.994 23.994-1.375 0-2.695-.18-4-.398 11.357-1.907 19.996-11.685 19.996-23.596z" opacity=".2"/><g fill="#3a3847"><path d="m247.124 367.978c-55.536 0-143.961-78.689-143.961-171.954 0-2.21 1.788-3.999 3.999-3.999 2.21 0 3.999 1.789 3.999 3.999 0 88.921 83.513 163.957 135.963 163.957s135.96-75.035 135.96-163.957c0-2.21 1.787-3.999 3.998-3.999s4 1.789 4 3.999c0 93.264-88.422 171.954-143.958 171.954z"/><path d="m107.162 184.027c-.285 0-.574-.031-.859-.094-1.699-.375-2.96-1.797-3.124-3.53-5.026-53.587 6.451-96.162 34.112-126.537 40.496-44.471 106.896-53.805 155.465-53.805 29.445 0 50.9 3.523 51.799 3.671 1.766.297 3.117 1.727 3.32 3.5.195 1.773-.805 3.468-2.453 4.147-28.461 11.708-23.9 40.192-21.549 49.487.805-.039 1.727-.062 2.756-.062 11.365 0 32.812 2.772 48.699 21.322 17.432 20.354 22.721 53.509 15.707 98.521-.258 1.655-1.523 2.976-3.164 3.304-1.641.344-3.326-.398-4.193-1.828l-33.438-54.556c-12.645 4.89-60.016 21.994-104.315 21.994-44.113 0-90.925-17.011-103.617-21.963l-31.69 54.446c-.727 1.249-2.055 1.983-3.456 1.983zm244.734-65.42c1.352 0 2.664.687 3.406 1.905l29.328 47.854c4.225-36.943-.938-64.178-15.379-81.041-13.8-16.119-32.632-18.525-42.622-18.525-3.092 0-5.014.242-5.146.266-1.867.265-3.693-.851-4.318-2.656-.141-.406-12.311-36.748 14.215-56.329-9.021-.96-22.588-2.023-38.623-2.023-46.956 0-111.021 8.881-149.549 51.197-23.857 26.196-34.921 62.319-32.952 107.518l26.879-46.183c1.003-1.733 3.151-2.452 4.995-1.679.543.227 54.899 22.65 103.796 22.65 48.979 0 103.894-22.431 104.44-22.658.499-.202 1.015-.296 1.53-.296z"/><path d="m355.973 511.939h-351.905c-2.21 0-3.999-1.789-3.999-3.999v-63.983c0-34.365 17.78-47.502 50.592-59.733 12.411-4.554 27.774-10.63 41.11-16.254l6.693-2.944c2.054-.867 4.382.07 5.252 2.094.871 2.03-.066 4.381-2.097 5.256l-6.717 2.96c-13.469 5.671-28.961 11.802-41.469 16.395-30.733 11.449-45.366 22.187-45.366 52.226v59.984h347.906c2.211 0 4 1.788 4 3.999 0 2.21-1.789 3.999-4 3.999z"/><path d="m267.998 415.965h-39.99c-1.515 0-2.898-.852-3.577-2.21l-7.998-15.996c-.988-1.976-.188-4.374 1.788-5.366 1.976-.983 4.374-.188 5.366 1.789l6.893 13.785h35.042l6.896-13.785c.984-1.977 3.396-2.772 5.365-1.789 1.977.992 2.773 3.391 1.789 5.366l-7.998 15.996c-.679 1.358-2.062 2.21-3.576 2.21z"/><path d="m220.01 455.954c-.496 0-1-.086-1.484-.281-2.05-.82-3.05-3.147-2.229-5.202l15.995-39.988c.816-2.055 3.171-3.055 5.198-2.227 2.05.82 3.05 3.147 2.229 5.194l-15.995 39.989c-.625 1.57-2.129 2.515-3.714 2.515z"/><path d="m275.994 455.954c-1.584 0-3.092-.945-3.717-2.515l-15.992-39.989c-.82-2.047.18-4.374 2.23-5.194 2.027-.82 4.381.172 5.197 2.227l15.992 39.988c.82 2.055-.18 4.382-2.227 5.202-.483.195-.991.281-1.483.281z"/><path d="m307.986 399.969c-.5 0-1-.086-1.484-.281l-59.984-23.993c-2.05-.82-3.05-3.147-2.229-5.202.816-2.054 3.151-3.054 5.198-2.226l59.984 23.993c2.047.82 3.045 3.148 2.227 5.194-.626 1.57-2.126 2.515-3.712 2.515z"/><path d="m188.577 495.943c-1.015 0-2.03-.383-2.808-1.148l-40.548-39.989c-1.085-1.069-1.468-2.663-.984-4.116l7.354-22.057-38.806-54.328c-1.136-1.594-.957-3.773.426-5.155l39.989-39.99c1.562-1.562 4.093-1.562 5.655 0s1.562 4.093 0 5.654l-37.595 37.6 38.021 53.228c.746 1.039.945 2.375.539 3.585l-7.209 21.635 38.775 38.24c1.574 1.547 1.589 4.077.039 5.654-.782.789-1.817 1.187-2.848 1.187z"/><path d="m212.012 495.943c-1.652 0-3.198-1.031-3.776-2.679l-55.981-159.957c-.73-2.078.367-4.366 2.453-5.093 2.089-.727 4.37.367 5.092 2.453l55.989 159.957c.726 2.085-.371 4.365-2.457 5.1-.437.149-.882.219-1.32.219z"/><path d="m283.992 495.943c-.438 0-.883-.07-1.318-.219-2.086-.734-3.188-3.015-2.461-5.1l55.992-159.957c.727-2.086 3.008-3.188 5.092-2.453 2.086.727 3.18 3.015 2.453 5.093l-55.984 159.957c-.578 1.648-2.125 2.679-3.774 2.679z"/><path d="m188.019 399.969c-1.585 0-3.089-.944-3.714-2.515-.82-2.046.18-4.374 2.23-5.194l59.983-23.993c2.027-.82 4.382.172 5.198 2.226.82 2.055-.18 4.382-2.23 5.202l-59.984 23.993c-.484.195-.988.281-1.483.281z"/><path d="m248.002 495.943c-2.21 0-3.999-1.789-3.999-3.999v-55.985c0-2.21 1.789-3.998 3.999-3.998s3.999 1.788 3.999 3.998v55.985c0 2.21-1.789 3.999-3.999 3.999z"/><path d="m403.961 367.978h-47.988c-2.209 0-3.998-1.788-3.998-3.999 0-2.21 1.789-3.998 3.998-3.998h47.988c2.211 0 3.998 1.788 3.998 3.998s-1.787 3.999-3.998 3.999z"/><path d="m483.939 367.978h-47.988c-2.209 0-3.998-1.788-3.998-3.999 0-2.21 1.789-3.998 3.998-3.998h47.988c2.211 0 3.998 1.788 3.998 3.998.001 2.21-1.787 3.999-3.998 3.999z"/><path d="m355.973 471.95c-15.432 0-27.992-12.56-27.992-27.993 0-2.21 1.789-3.998 4-3.998 2.209 0 3.998 1.788 3.998 3.998 0 11.028 8.967 19.995 19.994 19.995 11.021 0 19.996-8.967 19.996-19.995 0-2.21 1.787-3.998 3.998-3.998s4 1.788 4 3.998c0 15.434-12.561 27.993-27.994 27.993z"/><path d="m379.967 447.956h-47.987c-2.211 0-4-1.788-4-3.999 0-2.21 1.789-3.998 4-3.998h47.986c2.211 0 4 1.788 4 3.998.001 2.211-1.788 3.999-3.999 3.999z"/><path d="m331.98 439.959c-.531 0-1.062-.102-1.578-.32-2.031-.875-2.969-3.227-2.102-5.249l23.994-55.985c.867-2.038 3.234-2.976 5.248-2.101 2.031.867 2.977 3.218 2.102 5.249l-23.994 55.984c-.648 1.516-2.123 2.422-3.67 2.422z"/><path d="m379.967 439.959c-1.555 0-3.029-.906-3.678-2.422l-23.994-55.984c-.867-2.031.07-4.382 2.102-5.249 2.014-.883 4.373.062 5.248 2.101l23.994 55.985c.875 2.022-.07 4.374-2.102 5.249-.508.218-1.047.32-1.57.32z"/><path d="m483.939 471.95c-15.434 0-27.992-12.56-27.992-27.993 0-2.21 1.787-3.998 3.998-3.998s4 1.788 4 3.998c0 11.028 8.965 19.995 19.994 19.995 11.02 0 19.994-8.967 19.994-19.995 0-2.21 1.789-3.998 4-3.998 2.209 0 3.998 1.788 3.998 3.998.001 15.434-12.558 27.993-27.992 27.993z"/><path d="m507.934 447.956h-47.988c-2.211 0-3.998-1.788-3.998-3.999 0-2.21 1.787-3.998 3.998-3.998h47.988c2.209 0 3.998 1.788 3.998 3.998 0 2.211-1.789 3.999-3.998 3.999z"/><path d="m459.945 439.959c-.531 0-1.062-.102-1.578-.32-2.029-.875-2.967-3.227-2.1-5.249l23.992-55.985c.875-2.038 3.227-2.976 5.25-2.101 2.029.867 2.975 3.218 2.1 5.249l-23.992 55.984c-.648 1.516-2.125 2.422-3.672 2.422z"/><path d="m507.934 439.959c-1.555 0-3.031-.906-3.68-2.422l-23.994-55.984c-.867-2.031.07-4.382 2.102-5.249 2.008-.883 4.381.062 5.248 2.101l23.994 55.985c.875 2.022-.07 4.374-2.102 5.249-.508.218-1.047.32-1.568.32z"/><path d="m419.957 375.976c-6.615 0-11.998-5.382-11.998-11.997s5.383-11.996 11.998-11.996 11.996 5.381 11.996 11.996-5.381 11.997-11.996 11.997zm0-15.996c-2.211 0-4 1.796-4 3.998 0 2.211 1.789 3.999 4 3.999 2.201 0 3.998-1.788 3.998-3.999 0-2.202-1.797-3.998-3.998-3.998z"/><path d="m419.957 359.98c-2.211 0-4-1.789-4-4v-7.997c0-2.211 1.789-3.999 4-3.999 2.209 0 3.998 1.788 3.998 3.999v7.997c0 2.211-1.789 4-3.998 4z"/><path d="m419.957 495.943c-2.211 0-4-1.789-4-3.999v-111.97c0-2.211 1.789-3.999 4-3.999 2.209 0 3.998 1.788 3.998 3.999v111.97c0 2.21-1.789 3.999-3.998 3.999z"/><path d="m459.945 495.943h-79.979c-2.211 0-3.998-1.789-3.998-3.999s1.787-3.999 3.998-3.999h79.979c2.211 0 4 1.789 4 3.999s-1.789 3.999-4 3.999z"/><path d="m371.969 503.941c-2.209 0-3.998-1.789-3.998-3.999 0-6.615 5.381-11.997 11.996-11.997 2.211 0 4 1.789 4 3.999s-1.789 3.999-4 3.999-3.998 1.797-3.998 3.999c0 2.21-1.789 3.999-4 3.999z"/><path d="m467.943 503.941c-2.211 0-3.998-1.789-3.998-3.999 0-2.202-1.797-3.999-4-3.999-2.211 0-3.998-1.789-3.998-3.999s1.787-3.999 3.998-3.999c6.615 0 11.998 5.382 11.998 11.997 0 2.21-1.789 3.999-4 3.999z"/><path d="m371.969 511.939c-2.209 0-3.998-1.789-3.998-3.999v-7.998c0-2.21 1.789-3.999 3.998-3.999 2.211 0 4 1.789 4 3.999v7.998c0 2.21-1.789 3.999-4 3.999z"/><path d="m467.943 511.939c-2.211 0-3.998-1.789-3.998-3.999v-7.998c0-2.21 1.787-3.999 3.998-3.999s4 1.789 4 3.999v7.998c0 2.21-1.789 3.999-4 3.999z"/><path d="m467.943 511.939h-95.975c-2.209 0-3.998-1.789-3.998-3.999 0-2.211 1.789-3.999 3.998-3.999h95.975c2.211 0 4 1.788 4 3.999 0 2.21-1.789 3.999-4 3.999z"/></g></svg>